<svg xmlns="http://www.w3.org/2000/svg" width="256" height="228" fill="none"><path fill="#00D8FF" d="M210.483 73.824a171.204 171.204 0 0 0-8.241-2.597c.466-1.9.894-3.777 1.274-5.621 6.238-30.281 2.159-54.676-11.769-62.708-13.355-7.7-35.196.329-57.254 19.526a171.96 171.96 0 0 0-6.375 5.848 156.004 156.004 0 0 0-4.241-3.917C100.759 3.829 77.587-4.822 63.673 3.233 50.33 10.957 46.379 33.89 51.995 62.588a170.984 170.984 0 0 0 1.892 8.48c-3.28.932-6.445 1.924-9.474 2.98C17.309 83.498 0 98.307 0 113.668c0 15.865 18.582 31.778 46.812 41.427 2.227.762 4.54 1.482 6.921 2.165a167.543 167.543 0 0 0-2.01 9.138c-5.354 28.2-1.173 50.591 12.134 58.266 13.744 7.926 36.812-.221 59.273-19.855a145.238 145.238 0 0 0 5.342-4.923 168.224 168.224 0 0 0 6.921 6.314c21.757 18.722 43.245 26.282 56.539 18.586 13.731-7.949 18.194-32.003 12.4-61.268a144.76 144.76 0 0 0-1.535-6.842c1.62-.479 3.21-.974 4.76-1.488 29.348-9.723 48.443-25.443 48.443-41.52 0-15.417-17.868-30.326-45.517-39.844Zm-6.365 70.984c-1.4.463-2.836.911-4.3 1.345-3.24-10.257-7.612-21.163-12.963-32.432 5.106-11 9.31-21.767 12.459-31.957 2.619.758 5.16 1.557 7.61 2.4 23.689 8.156 38.14 20.213 38.14 29.504 0 9.896-15.606 22.743-40.946 31.14Zm-10.514 20.834c2.562 12.941 2.927 24.641 1.231 33.787-1.525 8.219-4.591 13.698-8.383 15.893-8.067 4.669-25.32-1.401-43.927-17.412a157.022 157.022 0 0 1-6.437-5.87c7.214-7.889 14.423-17.06 21.459-27.246 12.376-1.098 24.068-2.894 34.671-5.345a134.17 134.17 0 0 1 1.386 6.193ZM87.276 214.515c-7.882 2.783-14.16 2.863-17.955.675-8.075-4.657-11.432-22.636-6.853-46.752a156.943 156.943 0 0 1 1.868-8.499c10.487 2.319 22.094 3.988 34.5 4.994 7.083 9.967 14.5 19.128 21.975 27.15a136.21 136.21 0 0 1-4.877 4.492c-9.933 8.682-19.886 14.842-28.658 17.94ZM50.35 144.747c-12.483-4.267-22.792-9.812-29.858-15.863-6.35-5.437-9.555-10.836-9.555-15.216 0-9.322 13.898-21.212 37.076-29.293a157.83 157.83 0 0 1 8.812-2.773c3.204 10.42 7.406 21.315 12.477 32.332-5.137 11.181-9.399 22.249-12.634 32.792a135.217 135.217 0 0 1-6.318-1.979Zm12.378-84.26c-4.811-24.587-1.616-43.134 6.425-47.789 8.564-4.958 27.502 2.111 47.463 19.835a143.243 143.243 0 0 1 3.841 3.545c-7.438 7.987-14.787 17.08-21.808 26.988-12.04 1.115-23.565 2.908-34.161 5.309a160.337 160.337 0 0 1-1.76-7.887Zm110.427 27.268a347.908 347.908 0 0 0-7.785-12.803c8.168 1.033 15.994 2.404 23.343 4.08-2.206 7.072-4.956 14.466-8.193 22.045a383.1 383.1 0 0 0-7.365-13.322Zm-45.032-43.861c5.044 5.465 10.096 11.566 15.065 18.186a322.04 322.04 0 0 0-30.257-.006c4.974-6.559 10.069-12.652 15.192-18.18ZM82.802 87.83a322.895 322.895 0 0 0-7.227 13.238c-3.184-7.553-5.909-14.98-8.134-22.152 7.304-1.634 15.093-2.97 23.209-3.984a321.484 321.484 0 0 0-7.848 12.897Zm8.081 65.352c-8.385-.936-16.291-2.203-23.593-3.793 2.26-7.299 5.045-14.885 8.298-22.6a321.61 321.61 0 0 0 7.257 13.246 323.646 323.646 0 0 0 8.038 13.147Zm37.542 31.03c-5.184-5.592-10.354-11.779-15.403-18.433 4.902.192 9.899.291 14.978.291 5.218 0 10.376-.118 15.453-.344-4.985 6.774-10.018 12.97-15.028 18.486Zm52.198-57.817c3.422 7.799 6.306 15.345 8.596 22.52-7.422 1.694-15.436 3.058-23.88 4.071a382.34 382.34 0 0 0 7.859-13.026 348.835 348.835 0 0 0 7.425-13.565Zm-16.898 8.101a359.3 359.3 0 0 1-12.281 19.815c-7.597.543-15.445.823-23.444.823-7.967 0-15.716-.248-23.178-.732a310.503 310.503 0 0 1-12.513-19.846h.001a307.484 307.484 0 0 1-10.923-20.627 310.38 310.38 0 0 1 10.89-20.637l-.001.001a307.24 307.24 0 0 1 12.413-19.761A309.896 309.896 0 0 1 128 72.657c7.926 0 15.743.303 23.354.883a329.5 329.5 0 0 1 12.335 19.695 358.95 358.95 0 0 1 11.036 20.54 329.694 329.694 0 0 1-11 20.722Zm22.56-122.124c8.572 4.944 11.906 24.881 6.52 51.026-.344 1.668-.73 3.367-1.151 5.09-10.621-2.452-22.154-4.275-34.229-5.408-7.034-10.017-14.323-19.124-21.64-27.008a160.082 160.082 0 0 1 5.888-5.4c18.899-16.447 36.564-22.941 44.612-18.3ZM128 90.808c12.625 0 22.86 10.235 22.86 22.86s-10.235 22.86-22.86 22.86-22.86-10.235-22.86-22.86 10.235-22.86 22.86-22.86Z"/></svg>