<svg xmlns="http://www.w3.org/2000/svg" width="1589.484" height="647.448" fill="none" style="max-height:500px" viewBox="0 147.552 1589.484 647.448"><mask id="a" width="1572" height="795" x="0" y="0" maskUnits="userSpaceOnUse" style="mask-type:alpha"><path fill="#D9D9D9" d="M0 0h1572v795H0z"/></mask><g mask="url(#a)"><path fill="url(#b)" fill-rule="evenodd" d="M862.574-54.912V.955h-53.621v1h53.621V74.61h-53.621v1h53.621v72.655h-53.621v1h53.621v72.654h-53.621v1h53.621v72.654h-53.621v1h53.621v72.655h-53.621v1h53.621v72.654h-53.621v1h53.621v72.654h-53.621v1h53.621v55.869h1v-55.869h72.656v55.869h1v-55.869h72.65v55.869h1v-55.869h72.65v55.869h1v-55.869h72.66v55.869h1v-55.869h72.66v55.869h1v-55.869h72.65v55.869h1v-55.869h72.65v55.869h1v-55.869h58.12v-1h-58.12v-72.654h58.12v-1h-58.12v-72.654h58.12v-1h-58.12v-72.655h58.12v-1h-58.12v-72.654h58.12v-1h-58.12v-72.654h58.12v-1h-58.12V75.609h58.12v-1h-58.12V1.955h58.12v-1h-58.12v-55.867h-1V.955h-72.65v-55.867h-1V.955h-72.65v-55.867h-1V.955h-72.66v-55.867h-1V.955h-72.66v-55.867h-1V.955h-72.65v-55.867h-1V.955h-72.65v-55.867h-1V.955h-72.656v-55.867h-1Zm515.576 571.447v-72.654h-72.65v72.654h72.65Zm-73.65 0v-72.654h-72.65v72.654h72.65Zm-73.65 0v-72.654h-72.66v72.654h72.66Zm-73.66 0v-72.654h-72.66v72.654h72.66Zm-73.66 0v-72.654h-72.65v72.654h72.65Zm-73.65 0v-72.654h-72.65v72.654h72.65Zm-73.65 0v-72.654h-72.656v72.654h72.656Zm0-73.654h-72.656v-72.654h72.656v72.654Zm73.65 0h-72.65v-72.654h72.65v72.654Zm73.65 0h-72.65v-72.654h72.65v72.654Zm73.66 0h-72.66v-72.654h72.66v72.654Zm73.66 0h-72.66v-72.654h72.66v72.654Zm73.65 0h-72.65v-72.654h72.65v72.654Zm73.65 0h-72.65v-72.654h72.65v72.654Zm0-73.654v-72.655h-72.65v72.655h72.65Zm-73.65 0v-72.655h-72.65v72.655h72.65Zm-73.65 0v-72.655h-72.66v72.655h72.66Zm-73.66 0v-72.655h-72.66v72.655h72.66Zm-73.66 0v-72.655h-72.65v72.655h72.65Zm-73.65 0v-72.655h-72.65v72.655h72.65Zm-73.65 0v-72.655h-72.656v72.655h72.656Zm0-73.655h-72.656v-72.654h72.656v72.654Zm73.65 0h-72.65v-72.654h72.65v72.654Zm73.65 0h-72.65v-72.654h72.65v72.654Zm73.66 0h-72.66v-72.654h72.66v72.654Zm73.66 0h-72.66v-72.654h72.66v72.654Zm73.65 0h-72.65v-72.654h72.65v72.654Zm73.65 0h-72.65v-72.654h72.65v72.654Zm0-73.654v-72.654h-72.65v72.654h72.65Zm-73.65 0v-72.654h-72.65v72.654h72.65Zm-73.65 0v-72.654h-72.66v72.654h72.66Zm-73.66 0v-72.654h-72.66v72.654h72.66Zm-73.66 0v-72.654h-72.65v72.654h72.65Zm-73.65 0v-72.654h-72.65v72.654h72.65Zm-73.65 0v-72.654h-72.656v72.654h72.656Zm0-73.654h-72.656V75.609h72.656v72.655Zm73.65 0h-72.65V75.609h72.65v72.655Zm73.65 0h-72.65V75.609h72.65v72.655Zm73.66 0h-72.66V75.609h72.66v72.655Zm73.66 0h-72.66V75.609h72.66v72.655Zm73.65 0h-72.65V75.609h72.65v72.655Zm73.65 0h-72.65V75.609h72.65v72.655Zm0-73.655V1.955h-72.65V74.61h72.65Zm-73.65 0V1.955h-72.65V74.61h72.65Zm-73.65 0V1.955h-72.66V74.61h72.66Zm-73.66 0V1.955h-72.66V74.61h72.66Zm-73.66 0V1.955h-72.65V74.61h72.65Zm-73.65 0V1.955h-72.65V74.61h72.65Zm-73.65 0V1.955h-72.656V74.61h72.656Z" clip-rule="evenodd"/><path fill="url(#c)" fill-rule="evenodd" d="M492.574 251.088v55.867h-53.621v1h53.621v72.654h-53.621v1h53.621v72.655h-53.621v1h53.621v72.654h-53.621v1h53.621v72.654h-53.621v1h53.621v72.655h-53.621v1h53.621v72.654h-53.621v1h53.621v72.654h-53.621v1h53.621v55.869h1v-55.869h72.656v55.869h1v-55.869h72.648v55.869h1v-55.869h72.657v55.869h1v-55.869h72.656v55.869h1v-55.869h72.656v55.869h1v-55.869h72.649v55.869h1v-55.869h72.654v55.869h1v-55.869h58.12v-1h-58.12v-72.654h58.12v-1h-58.12v-72.654h58.12v-1h-58.12v-72.655h58.12v-1h-58.12v-72.654h58.12v-1h-58.12v-72.654h58.12v-1h-58.12v-72.655h58.12v-1h-58.12v-72.654h58.12v-1h-58.12v-55.867h-1v55.867h-72.654v-55.867h-1v55.867h-72.649v-55.867h-1v55.867h-72.656v-55.867h-1v55.867h-72.656v-55.867h-1v55.867h-72.657v-55.867h-1v55.867H567.23v-55.867h-1v55.867h-72.656v-55.867h-1Zm515.576 571.447v-72.654h-72.654v72.654h72.654Zm-73.654 0v-72.654h-72.649v72.654h72.649Zm-73.649 0v-72.654h-72.656v72.654h72.656Zm-73.656 0v-72.654h-72.656v72.654h72.656Zm-73.656 0v-72.654h-72.657v72.654h72.657Zm-73.657 0v-72.654H567.23v72.654h72.648Zm-73.648 0v-72.654h-72.656v72.654h72.656Zm0-73.654h-72.656v-72.654h72.656v72.654Zm73.648 0H567.23v-72.654h72.648v72.654Zm73.657 0h-72.657v-72.654h72.657v72.654Zm73.656 0h-72.656v-72.654h72.656v72.654Zm73.656 0h-72.656v-72.654h72.656v72.654Zm73.649 0h-72.649v-72.654h72.649v72.654Zm73.654 0h-72.654v-72.654h72.654v72.654Zm0-73.654v-72.655h-72.654v72.655h72.654Zm-73.654 0v-72.655h-72.649v72.655h72.649Zm-73.649 0v-72.655h-72.656v72.655h72.656Zm-73.656 0v-72.655h-72.656v72.655h72.656Zm-73.656 0v-72.655h-72.657v72.655h72.657Zm-73.657 0v-72.655H567.23v72.655h72.648Zm-73.648 0v-72.655h-72.656v72.655h72.656Zm0-73.655h-72.656v-72.654h72.656v72.654Zm73.648 0H567.23v-72.654h72.648v72.654Zm73.657 0h-72.657v-72.654h72.657v72.654Zm73.656 0h-72.656v-72.654h72.656v72.654Zm73.656 0h-72.656v-72.654h72.656v72.654Zm73.649 0h-72.649v-72.654h72.649v72.654Zm73.654 0h-72.654v-72.654h72.654v72.654Zm0-73.654v-72.654h-72.654v72.654h72.654Zm-73.654 0v-72.654h-72.649v72.654h72.649Zm-73.649 0v-72.654h-72.656v72.654h72.656Zm-73.656 0v-72.654h-72.656v72.654h72.656Zm-73.656 0v-72.654h-72.657v72.654h72.657Zm-73.657 0v-72.654H567.23v72.654h72.648Zm-73.648 0v-72.654h-72.656v72.654h72.656Zm0-73.654h-72.656v-72.655h72.656v72.655Zm73.648 0H567.23v-72.655h72.648v72.655Zm73.657 0h-72.657v-72.655h72.657v72.655Zm73.656 0h-72.656v-72.655h72.656v72.655Zm73.656 0h-72.656v-72.655h72.656v72.655Zm73.649 0h-72.649v-72.655h72.649v72.655Zm73.654 0h-72.654v-72.655h72.654v72.655Zm0-73.655v-72.654h-72.654v72.654h72.654Zm-73.654 0v-72.654h-72.649v72.654h72.649Zm-73.649 0v-72.654h-72.656v72.654h72.656Zm-73.656 0v-72.654h-72.656v72.654h72.656Zm-73.656 0v-72.654h-72.657v72.654h72.657Zm-73.657 0v-72.654H567.23v72.654h72.648Zm-73.648 0v-72.654h-72.656v72.654h72.656Z" clip-rule="evenodd"/><g filter="url(#d)" opacity=".4"><ellipse cx="1097.67" cy="90.22" fill="url(#e)" fill-opacity=".23" rx="278.006" ry="262.262" transform="rotate(-157.304 1097.67 90.22)"/></g><g filter="url(#f)" opacity=".4"><ellipse cx="645.778" cy="-170.165" fill="#8244FF" rx="362.917" ry="211.851" transform="rotate(46.355 645.778 -170.165)"/></g></g><defs><radialGradient id="b" cx="0" cy="0" r="1" gradientTransform="rotate(90 431.932 691.178) scale(238.243)" gradientUnits="userSpaceOnUse"><stop stop-color="#8244FF" stop-opacity=".29"/><stop offset="1" stop-color="#8244FF" stop-opacity="0"/></radialGradient><radialGradient id="c" cx="0" cy="0" r="1" gradientTransform="rotate(90 93.932 659.179) scale(238.243)" gradientUnits="userSpaceOnUse"><stop stop-color="#8244FF" stop-opacity=".29"/><stop offset="1" stop-color="#8244FF" stop-opacity="0"/></radialGradient><filter id="d" width="939.586" height="917.463" x="627.875" y="-368.511" color-interpolation-filters="sRGB" filterUnits="userSpaceOnUse"><feFlood flood-opacity="0" result="BackgroundImageFix"/><feBlend in="SourceGraphic" in2="BackgroundImageFix" result="shape"/><feGaussianBlur result="effect1_foregroundBlur_340_660" stdDeviation="97"/></filter><filter id="f" width="1195.42" height="1209.27" x="48.07" y="-774.799" color-interpolation-filters="sRGB" filterUnits="userSpaceOnUse"><feFlood flood-opacity="0" result="BackgroundImageFix"/><feBlend in="SourceGraphic" in2="BackgroundImageFix" result="shape"/><feGaussianBlur result="effect1_foregroundBlur_340_660" stdDeviation="152"/></filter><linearGradient id="e" x1="1356.37" x2="1240.56" y1="-139.487" y2="384.088" gradientUnits="userSpaceOnUse"><stop stop-color="#F926AE"/><stop offset=".219" stop-color="#F926AE"/><stop offset="1" stop-color="#F926AE" stop-opacity="0"/></linearGradient></defs></svg>